<mxfile host="65bd71144e">
    <diagram id="ftyuwNETY57sAItlXPbx" name="Object">
        <mxGraphModel dx="1164" dy="531" grid="1" gridSize="10" guides="1" tooltips="1" connect="1" arrows="1" fold="1" page="1" pageScale="1" pageWidth="827" pageHeight="1169" math="0" shadow="0">
            <root>
                <mxCell id="0"/>
                <mxCell id="1" parent="0"/>
                <mxCell id="2" value="Sticker" style="swimlane;fontStyle=0;childLayout=stackLayout;horizontal=1;startSize=30;horizontalStack=0;resizeParent=1;resizeParentMax=0;resizeLast=0;collapsible=1;marginBottom=0;" parent="1" vertex="1">
                    <mxGeometry x="160" y="130" width="120" height="120" as="geometry"/>
                </mxCell>
                <mxCell id="29" value="date" style="text;strokeColor=none;fillColor=none;align=left;verticalAlign=middle;spacingLeft=4;spacingRight=4;overflow=hidden;points=[[0,0.5],[1,0.5]];portConstraint=eastwest;rotatable=0;" parent="2" vertex="1">
                    <mxGeometry y="30" width="120" height="30" as="geometry"/>
                </mxCell>
                <mxCell id="3" value="color" style="text;strokeColor=none;fillColor=none;align=left;verticalAlign=middle;spacingLeft=4;spacingRight=4;overflow=hidden;points=[[0,0.5],[1,0.5]];portConstraint=eastwest;rotatable=0;" parent="2" vertex="1">
                    <mxGeometry y="60" width="120" height="30" as="geometry"/>
                </mxCell>
                <mxCell id="4" value="comment" style="text;strokeColor=none;fillColor=none;align=left;verticalAlign=middle;spacingLeft=4;spacingRight=4;overflow=hidden;points=[[0,0.5],[1,0.5]];portConstraint=eastwest;rotatable=0;" parent="2" vertex="1">
                    <mxGeometry y="90" width="120" height="30" as="geometry"/>
                </mxCell>
                <mxCell id="6" value="Book" style="swimlane;fontStyle=0;childLayout=stackLayout;horizontal=1;startSize=30;horizontalStack=0;resizeParent=1;resizeParentMax=0;resizeLast=0;collapsible=1;marginBottom=0;" parent="1" vertex="1">
                    <mxGeometry x="160" y="365" width="120" height="90" as="geometry"/>
                </mxCell>
                <mxCell id="8" value="childName" style="text;strokeColor=none;fillColor=none;align=left;verticalAlign=middle;spacingLeft=4;spacingRight=4;overflow=hidden;points=[[0,0.5],[1,0.5]];portConstraint=eastwest;rotatable=0;" parent="6" vertex="1">
                    <mxGeometry y="30" width="120" height="30" as="geometry"/>
                </mxCell>
                <mxCell id="7" value="stickersList" style="text;strokeColor=none;fillColor=none;align=left;verticalAlign=middle;spacingLeft=4;spacingRight=4;overflow=hidden;points=[[0,0.5],[1,0.5]];portConstraint=eastwest;rotatable=0;" parent="6" vertex="1">
                    <mxGeometry y="60" width="120" height="30" as="geometry"/>
                </mxCell>
                <mxCell id="10" value="Class" style="swimlane;fontStyle=0;childLayout=stackLayout;horizontal=1;startSize=30;horizontalStack=0;resizeParent=1;resizeParentMax=0;resizeLast=0;collapsible=1;marginBottom=0;" parent="1" vertex="1">
                    <mxGeometry x="520" y="160" width="120" height="60" as="geometry"/>
                </mxCell>
                <mxCell id="12" value="booksList" style="text;strokeColor=none;fillColor=none;align=left;verticalAlign=middle;spacingLeft=4;spacingRight=4;overflow=hidden;points=[[0,0.5],[1,0.5]];portConstraint=eastwest;rotatable=0;" parent="10" vertex="1">
                    <mxGeometry y="30" width="120" height="30" as="geometry"/>
                </mxCell>
                <mxCell id="14" value="User" style="swimlane;" parent="1" vertex="1">
                    <mxGeometry x="420" y="325" width="320" height="155" as="geometry"/>
                </mxCell>
                <mxCell id="15" value="Teacher" style="swimlane;fontStyle=0;childLayout=stackLayout;horizontal=1;startSize=30;horizontalStack=0;resizeParent=1;resizeParentMax=0;resizeLast=0;collapsible=1;marginBottom=0;" parent="14" vertex="1">
                    <mxGeometry x="170" y="40" width="140" height="90" as="geometry"/>
                </mxCell>
                <mxCell id="16" value="name" style="text;strokeColor=none;fillColor=none;align=left;verticalAlign=middle;spacingLeft=4;spacingRight=4;overflow=hidden;points=[[0,0.5],[1,0.5]];portConstraint=eastwest;rotatable=0;" parent="15" vertex="1">
                    <mxGeometry y="30" width="140" height="30" as="geometry"/>
                </mxCell>
                <mxCell id="18" value="class" style="text;strokeColor=none;fillColor=none;align=left;verticalAlign=middle;spacingLeft=4;spacingRight=4;overflow=hidden;points=[[0,0.5],[1,0.5]];portConstraint=eastwest;rotatable=0;" parent="15" vertex="1">
                    <mxGeometry y="60" width="140" height="30" as="geometry"/>
                </mxCell>
                <mxCell id="19" value="Parent" style="swimlane;fontStyle=0;childLayout=stackLayout;horizontal=1;startSize=30;horizontalStack=0;resizeParent=1;resizeParentMax=0;resizeLast=0;collapsible=1;marginBottom=0;" parent="14" vertex="1">
                    <mxGeometry x="14" y="55" width="140" height="60" as="geometry"/>
                </mxCell>
                <mxCell id="20" value="child" style="text;strokeColor=none;fillColor=none;align=left;verticalAlign=middle;spacingLeft=4;spacingRight=4;overflow=hidden;points=[[0,0.5],[1,0.5]];portConstraint=eastwest;rotatable=0;" parent="19" vertex="1">
                    <mxGeometry y="30" width="140" height="30" as="geometry"/>
                </mxCell>
                <mxCell id="23" style="edgeStyle=none;html=1;exitX=0;exitY=0.5;exitDx=0;exitDy=0;entryX=0;entryY=0.25;entryDx=0;entryDy=0;curved=1;" parent="1" source="7" target="2" edge="1">
                    <mxGeometry relative="1" as="geometry">
                        <Array as="points">
                            <mxPoint x="80" y="330"/>
                        </Array>
                    </mxGeometry>
                </mxCell>
                <mxCell id="26" style="edgeStyle=none;curved=1;html=1;exitX=0;exitY=0.5;exitDx=0;exitDy=0;entryX=1;entryY=0;entryDx=0;entryDy=0;" parent="1" source="12" target="6" edge="1">
                    <mxGeometry relative="1" as="geometry"/>
                </mxCell>
                <mxCell id="27" style="edgeStyle=none;curved=1;html=1;exitX=0;exitY=0.5;exitDx=0;exitDy=0;entryX=1;entryY=0.25;entryDx=0;entryDy=0;" parent="1" source="20" target="6" edge="1">
                    <mxGeometry relative="1" as="geometry">
                        <Array as="points"/>
                    </mxGeometry>
                </mxCell>
                <mxCell id="28" style="edgeStyle=none;curved=1;html=1;exitX=1;exitY=0.5;exitDx=0;exitDy=0;entryX=1;entryY=0.25;entryDx=0;entryDy=0;" parent="1" source="18" target="10" edge="1">
                    <mxGeometry relative="1" as="geometry">
                        <Array as="points">
                            <mxPoint x="840" y="350"/>
                        </Array>
                    </mxGeometry>
                </mxCell>
                <mxCell id="33" value="The Object model" style="text;html=1;resizable=0;autosize=1;align=center;verticalAlign=middle;points=[];fillColor=none;strokeColor=none;rounded=0;" parent="1" vertex="1">
                    <mxGeometry x="385" y="80" width="110" height="20" as="geometry"/>
                </mxCell>
            </root>
        </mxGraphModel>
    </diagram>
    <diagram id="2Rw9sbZWZJ4bx8K9qcIA" name="Relational">
        <mxGraphModel dx="981" dy="525" grid="1" gridSize="10" guides="1" tooltips="1" connect="1" arrows="1" fold="1" page="1" pageScale="1" pageWidth="1169" pageHeight="827" math="0" shadow="0">
            <root>
                <mxCell id="yNfL3bzE_0ITK6QHv3JD-0"/>
                <mxCell id="yNfL3bzE_0ITK6QHv3JD-1" parent="yNfL3bzE_0ITK6QHv3JD-0"/>
                <mxCell id="5EaLWz0tMy1jXtiktCm6-0" value="sticker" style="swimlane;fontStyle=0;childLayout=stackLayout;horizontal=1;startSize=30;horizontalStack=0;resizeParent=1;resizeParentMax=0;resizeLast=0;collapsible=1;marginBottom=0;" parent="yNfL3bzE_0ITK6QHv3JD-1" vertex="1">
                    <mxGeometry x="280" y="50" width="120" height="210" as="geometry"/>
                </mxCell>
                <mxCell id="5EaLWz0tMy1jXtiktCm6-1" value="sitckerID" style="text;strokeColor=none;fillColor=none;align=left;verticalAlign=middle;spacingLeft=4;spacingRight=4;overflow=hidden;points=[[0,0.5],[1,0.5]];portConstraint=eastwest;rotatable=0;" parent="5EaLWz0tMy1jXtiktCm6-0" vertex="1">
                    <mxGeometry y="30" width="120" height="30" as="geometry"/>
                </mxCell>
                <mxCell id="5EaLWz0tMy1jXtiktCm6-25" value="containerBook" style="text;strokeColor=none;fillColor=none;align=left;verticalAlign=middle;spacingLeft=4;spacingRight=4;overflow=hidden;points=[[0,0.5],[1,0.5]];portConstraint=eastwest;rotatable=0;fontStyle=0" parent="5EaLWz0tMy1jXtiktCm6-0" vertex="1">
                    <mxGeometry y="60" width="120" height="30" as="geometry"/>
                </mxCell>
                <mxCell id="5EaLWz0tMy1jXtiktCm6-2" value="stickerDate" style="text;strokeColor=none;fillColor=none;align=left;verticalAlign=middle;spacingLeft=4;spacingRight=4;overflow=hidden;points=[[0,0.5],[1,0.5]];portConstraint=eastwest;rotatable=0;" parent="5EaLWz0tMy1jXtiktCm6-0" vertex="1">
                    <mxGeometry y="90" width="120" height="30" as="geometry"/>
                </mxCell>
                <mxCell id="5EaLWz0tMy1jXtiktCm6-3" value="color" style="text;strokeColor=none;fillColor=none;align=left;verticalAlign=middle;spacingLeft=4;spacingRight=4;overflow=hidden;points=[[0,0.5],[1,0.5]];portConstraint=eastwest;rotatable=0;" parent="5EaLWz0tMy1jXtiktCm6-0" vertex="1">
                    <mxGeometry y="120" width="120" height="30" as="geometry"/>
                </mxCell>
                <mxCell id="5EaLWz0tMy1jXtiktCm6-4" value="comment" style="text;strokeColor=none;fillColor=none;align=left;verticalAlign=middle;spacingLeft=4;spacingRight=4;overflow=hidden;points=[[0,0.5],[1,0.5]];portConstraint=eastwest;rotatable=0;" parent="5EaLWz0tMy1jXtiktCm6-0" vertex="1">
                    <mxGeometry y="150" width="120" height="30" as="geometry"/>
                </mxCell>
                <mxCell id="2k0x7b1K-s7LJr73kOiR-0" value="teacher" style="text;strokeColor=none;fillColor=none;align=left;verticalAlign=middle;spacingLeft=4;spacingRight=4;overflow=hidden;points=[[0,0.5],[1,0.5]];portConstraint=eastwest;rotatable=0;" parent="5EaLWz0tMy1jXtiktCm6-0" vertex="1">
                    <mxGeometry y="180" width="120" height="30" as="geometry"/>
                </mxCell>
                <mxCell id="5EaLWz0tMy1jXtiktCm6-5" value="book" style="swimlane;fontStyle=0;childLayout=stackLayout;horizontal=1;startSize=30;horizontalStack=0;resizeParent=1;resizeParentMax=0;resizeLast=0;collapsible=1;marginBottom=0;" parent="yNfL3bzE_0ITK6QHv3JD-1" vertex="1">
                    <mxGeometry x="280" y="315" width="120" height="150" as="geometry"/>
                </mxCell>
                <mxCell id="5EaLWz0tMy1jXtiktCm6-6" value="bookID" style="text;strokeColor=none;fillColor=none;align=left;verticalAlign=middle;spacingLeft=4;spacingRight=4;overflow=hidden;points=[[0,0.5],[1,0.5]];portConstraint=eastwest;rotatable=0;" parent="5EaLWz0tMy1jXtiktCm6-5" vertex="1">
                    <mxGeometry y="30" width="120" height="30" as="geometry"/>
                </mxCell>
                <mxCell id="5EaLWz0tMy1jXtiktCm6-26" value="containerClass" style="text;strokeColor=none;fillColor=none;align=left;verticalAlign=middle;spacingLeft=4;spacingRight=4;overflow=hidden;points=[[0,0.5],[1,0.5]];portConstraint=eastwest;rotatable=0;" parent="5EaLWz0tMy1jXtiktCm6-5" vertex="1">
                    <mxGeometry y="60" width="120" height="30" as="geometry"/>
                </mxCell>
                <mxCell id="5EaLWz0tMy1jXtiktCm6-27" value="containerParent" style="text;strokeColor=none;fillColor=none;align=left;verticalAlign=middle;spacingLeft=4;spacingRight=4;overflow=hidden;points=[[0,0.5],[1,0.5]];portConstraint=eastwest;rotatable=0;" parent="5EaLWz0tMy1jXtiktCm6-5" vertex="1">
                    <mxGeometry y="90" width="120" height="30" as="geometry"/>
                </mxCell>
                <mxCell id="5EaLWz0tMy1jXtiktCm6-7" value="childName" style="text;strokeColor=none;fillColor=none;align=left;verticalAlign=middle;spacingLeft=4;spacingRight=4;overflow=hidden;points=[[0,0.5],[1,0.5]];portConstraint=eastwest;rotatable=0;" parent="5EaLWz0tMy1jXtiktCm6-5" vertex="1">
                    <mxGeometry y="120" width="120" height="30" as="geometry"/>
                </mxCell>
                <mxCell id="5EaLWz0tMy1jXtiktCm6-9" value="class" style="swimlane;fontStyle=0;childLayout=stackLayout;horizontal=1;startSize=30;horizontalStack=0;resizeParent=1;resizeParentMax=0;resizeLast=0;collapsible=1;marginBottom=0;" parent="yNfL3bzE_0ITK6QHv3JD-1" vertex="1">
                    <mxGeometry x="640" y="110" width="120" height="90" as="geometry"/>
                </mxCell>
                <mxCell id="5EaLWz0tMy1jXtiktCm6-10" value="classID" style="text;strokeColor=none;fillColor=none;align=left;verticalAlign=middle;spacingLeft=4;spacingRight=4;overflow=hidden;points=[[0,0.5],[1,0.5]];portConstraint=eastwest;rotatable=0;" parent="5EaLWz0tMy1jXtiktCm6-9" vertex="1">
                    <mxGeometry y="30" width="120" height="30" as="geometry"/>
                </mxCell>
                <mxCell id="5EaLWz0tMy1jXtiktCm6-11" value="containerTeacher" style="text;strokeColor=none;fillColor=none;align=left;verticalAlign=middle;spacingLeft=4;spacingRight=4;overflow=hidden;points=[[0,0.5],[1,0.5]];portConstraint=eastwest;rotatable=0;" parent="5EaLWz0tMy1jXtiktCm6-9" vertex="1">
                    <mxGeometry y="60" width="120" height="30" as="geometry"/>
                </mxCell>
                <mxCell id="5EaLWz0tMy1jXtiktCm6-23" style="edgeStyle=none;curved=1;html=1;entryX=1;entryY=0.5;entryDx=0;entryDy=0;exitX=1;exitY=0.5;exitDx=0;exitDy=0;" parent="yNfL3bzE_0ITK6QHv3JD-1" source="5EaLWz0tMy1jXtiktCm6-11" target="5EaLWz0tMy1jXtiktCm6-14" edge="1">
                    <mxGeometry relative="1" as="geometry">
                        <Array as="points">
                            <mxPoint x="960" y="260"/>
                        </Array>
                        <mxPoint x="830" y="100" as="sourcePoint"/>
                    </mxGeometry>
                </mxCell>
                <mxCell id="5EaLWz0tMy1jXtiktCm6-24" value="The Relational model" style="text;html=1;resizable=0;autosize=1;align=center;verticalAlign=middle;points=[];fillColor=none;strokeColor=none;rounded=0;" parent="yNfL3bzE_0ITK6QHv3JD-1" vertex="1">
                    <mxGeometry x="495" y="30" width="130" height="20" as="geometry"/>
                </mxCell>
                <mxCell id="5EaLWz0tMy1jXtiktCm6-20" style="edgeStyle=none;html=1;exitX=0;exitY=0.5;exitDx=0;exitDy=0;entryX=0;entryY=0.5;entryDx=0;entryDy=0;curved=1;" parent="yNfL3bzE_0ITK6QHv3JD-1" source="5EaLWz0tMy1jXtiktCm6-25" target="5EaLWz0tMy1jXtiktCm6-6" edge="1">
                    <mxGeometry relative="1" as="geometry">
                        <Array as="points">
                            <mxPoint x="210" y="250"/>
                        </Array>
                    </mxGeometry>
                </mxCell>
                <mxCell id="5EaLWz0tMy1jXtiktCm6-21" style="edgeStyle=none;curved=1;html=1;exitX=1;exitY=0.5;exitDx=0;exitDy=0;entryX=0;entryY=0.5;entryDx=0;entryDy=0;" parent="yNfL3bzE_0ITK6QHv3JD-1" source="5EaLWz0tMy1jXtiktCm6-26" target="5EaLWz0tMy1jXtiktCm6-10" edge="1">
                    <mxGeometry relative="1" as="geometry"/>
                </mxCell>
                <mxCell id="5EaLWz0tMy1jXtiktCm6-22" style="edgeStyle=none;curved=1;html=1;exitX=1;exitY=0.5;exitDx=0;exitDy=0;entryX=0;entryY=0.5;entryDx=0;entryDy=0;" parent="yNfL3bzE_0ITK6QHv3JD-1" source="5EaLWz0tMy1jXtiktCm6-27" target="5EaLWz0tMy1jXtiktCm6-14" edge="1">
                    <mxGeometry relative="1" as="geometry">
                        <Array as="points"/>
                        <mxPoint x="554" y="375" as="targetPoint"/>
                    </mxGeometry>
                </mxCell>
                <mxCell id="5EaLWz0tMy1jXtiktCm6-13" value="user" style="swimlane;fontStyle=0;childLayout=stackLayout;horizontal=1;startSize=30;horizontalStack=0;resizeParent=1;resizeParentMax=0;resizeLast=0;collapsible=1;marginBottom=0;" parent="yNfL3bzE_0ITK6QHv3JD-1" vertex="1">
                    <mxGeometry x="630" y="285" width="140" height="210" as="geometry"/>
                </mxCell>
                <mxCell id="5EaLWz0tMy1jXtiktCm6-14" value="userID" style="text;strokeColor=none;fillColor=none;align=left;verticalAlign=middle;spacingLeft=4;spacingRight=4;overflow=hidden;points=[[0,0.5],[1,0.5]];portConstraint=eastwest;rotatable=0;" parent="5EaLWz0tMy1jXtiktCm6-13" vertex="1">
                    <mxGeometry y="30" width="140" height="30" as="geometry"/>
                </mxCell>
                <mxCell id="eKZ2Py1RepufcbVA6XmN-0" value="role (&quot;teacher&quot;/&quot;parent&quot;)" style="text;strokeColor=none;fillColor=none;align=left;verticalAlign=middle;spacingLeft=4;spacingRight=4;overflow=hidden;points=[[0,0.5],[1,0.5]];portConstraint=eastwest;rotatable=0;" vertex="1" parent="5EaLWz0tMy1jXtiktCm6-13">
                    <mxGeometry y="60" width="140" height="30" as="geometry"/>
                </mxCell>
                <mxCell id="5EaLWz0tMy1jXtiktCm6-15" value="firstname" style="text;strokeColor=none;fillColor=none;align=left;verticalAlign=middle;spacingLeft=4;spacingRight=4;overflow=hidden;points=[[0,0.5],[1,0.5]];portConstraint=eastwest;rotatable=0;" parent="5EaLWz0tMy1jXtiktCm6-13" vertex="1">
                    <mxGeometry y="90" width="140" height="30" as="geometry"/>
                </mxCell>
                <mxCell id="eKZ2Py1RepufcbVA6XmN-1" value="lastname" style="text;strokeColor=none;fillColor=none;align=left;verticalAlign=middle;spacingLeft=4;spacingRight=4;overflow=hidden;points=[[0,0.5],[1,0.5]];portConstraint=eastwest;rotatable=0;" vertex="1" parent="5EaLWz0tMy1jXtiktCm6-13">
                    <mxGeometry y="120" width="140" height="30" as="geometry"/>
                </mxCell>
                <mxCell id="5EaLWz0tMy1jXtiktCm6-16" value="username" style="text;strokeColor=none;fillColor=none;align=left;verticalAlign=middle;spacingLeft=4;spacingRight=4;overflow=hidden;points=[[0,0.5],[1,0.5]];portConstraint=eastwest;rotatable=0;" parent="5EaLWz0tMy1jXtiktCm6-13" vertex="1">
                    <mxGeometry y="150" width="140" height="30" as="geometry"/>
                </mxCell>
                <mxCell id="5EaLWz0tMy1jXtiktCm6-30" value="password" style="text;strokeColor=none;fillColor=none;align=left;verticalAlign=middle;spacingLeft=4;spacingRight=4;overflow=hidden;points=[[0,0.5],[1,0.5]];portConstraint=eastwest;rotatable=0;" parent="5EaLWz0tMy1jXtiktCm6-13" vertex="1">
                    <mxGeometry y="180" width="140" height="30" as="geometry"/>
                </mxCell>
                <mxCell id="eKZ2Py1RepufcbVA6XmN-3" style="edgeStyle=none;html=1;exitX=1;exitY=0.5;exitDx=0;exitDy=0;entryX=0;entryY=0.5;entryDx=0;entryDy=0;" edge="1" parent="yNfL3bzE_0ITK6QHv3JD-1" source="2k0x7b1K-s7LJr73kOiR-0" target="5EaLWz0tMy1jXtiktCm6-14">
                    <mxGeometry relative="1" as="geometry"/>
                </mxCell>
            </root>
        </mxGraphModel>
    </diagram>
    <diagram id="Ez1KSnTquqUixuCrtAuL" name="Architecture">
        <mxGraphModel dx="1151" dy="735" grid="1" gridSize="10" guides="1" tooltips="1" connect="1" arrows="1" fold="1" page="1" pageScale="1" pageWidth="1169" pageHeight="827" math="0" shadow="0">
            <root>
                <mxCell id="WmtxSrRQELL2SFM4piuL-0"/>
                <mxCell id="WmtxSrRQELL2SFM4piuL-1" parent="WmtxSrRQELL2SFM4piuL-0"/>
                <mxCell id="WmtxSrRQELL2SFM4piuL-2" value="Client" style="fontColor=#0066CC;verticalAlign=top;verticalLabelPosition=bottom;labelPosition=center;align=center;html=1;outlineConnect=0;fillColor=#CCCCCC;strokeColor=#6881B3;gradientColor=none;gradientDirection=north;strokeWidth=2;shape=mxgraph.networks.monitor;" parent="WmtxSrRQELL2SFM4piuL-1" vertex="1">
                    <mxGeometry x="960" y="147.5" width="80" height="65" as="geometry"/>
                </mxCell>
                <mxCell id="WmtxSrRQELL2SFM4piuL-4" value="" style="endArrow=classic;html=1;curved=1;entryX=0;entryY=0;entryDx=0;entryDy=0;entryPerimeter=0;exitX=1;exitY=0.25;exitDx=0;exitDy=0;" parent="WmtxSrRQELL2SFM4piuL-1" source="GJmi0HxVk_QNosMw-O06-1" target="WmtxSrRQELL2SFM4piuL-2" edge="1">
                    <mxGeometry relative="1" as="geometry">
                        <mxPoint x="630" y="130" as="sourcePoint"/>
                        <mxPoint x="690" y="380" as="targetPoint"/>
                    </mxGeometry>
                </mxCell>
                <mxCell id="WmtxSrRQELL2SFM4piuL-5" value="Réponse HTTP" style="edgeLabel;resizable=0;html=1;align=center;verticalAlign=middle;" parent="WmtxSrRQELL2SFM4piuL-4" connectable="0" vertex="1">
                    <mxGeometry relative="1" as="geometry"/>
                </mxCell>
                <mxCell id="WmtxSrRQELL2SFM4piuL-6" value="" style="endArrow=classic;html=1;curved=1;exitX=0;exitY=0.5;exitDx=0;exitDy=0;exitPerimeter=0;entryX=1;entryY=0.5;entryDx=0;entryDy=0;" parent="WmtxSrRQELL2SFM4piuL-1" source="WmtxSrRQELL2SFM4piuL-2" target="GJmi0HxVk_QNosMw-O06-1" edge="1">
                    <mxGeometry relative="1" as="geometry">
                        <mxPoint x="400" y="380" as="sourcePoint"/>
                        <mxPoint x="550" y="193" as="targetPoint"/>
                    </mxGeometry>
                </mxCell>
                <mxCell id="WmtxSrRQELL2SFM4piuL-7" value="Requête HTTP" style="edgeLabel;resizable=0;html=1;align=center;verticalAlign=middle;" parent="WmtxSrRQELL2SFM4piuL-6" connectable="0" vertex="1">
                    <mxGeometry relative="1" as="geometry"/>
                </mxCell>
                <mxCell id="GJmi0HxVk_QNosMw-O06-0" value="Serveur" style="swimlane;" parent="WmtxSrRQELL2SFM4piuL-1" vertex="1">
                    <mxGeometry x="160" y="80" width="400" height="560" as="geometry"/>
                </mxCell>
                <mxCell id="sotVoUwGNZf-6Be--usY-4" style="edgeStyle=none;html=1;exitX=0;exitY=1;exitDx=0;exitDy=0;entryX=0.5;entryY=0;entryDx=0;entryDy=0;startArrow=classic;startFill=1;" parent="GJmi0HxVk_QNosMw-O06-0" source="GJmi0HxVk_QNosMw-O06-1" target="GJmi0HxVk_QNosMw-O06-2" edge="1">
                    <mxGeometry relative="1" as="geometry"/>
                </mxCell>
                <mxCell id="GJmi0HxVk_QNosMw-O06-1" value="Software serveur" style="swimlane;" parent="GJmi0HxVk_QNosMw-O06-0" vertex="1">
                    <mxGeometry x="240" y="40" width="120" height="120" as="geometry"/>
                </mxCell>
                <mxCell id="sotVoUwGNZf-6Be--usY-2" style="edgeStyle=none;html=1;exitX=1;exitY=1;exitDx=0;exitDy=0;entryX=0.5;entryY=0;entryDx=0;entryDy=0;startArrow=classic;startFill=1;" parent="GJmi0HxVk_QNosMw-O06-0" source="GJmi0HxVk_QNosMw-O06-2" target="GJmi0HxVk_QNosMw-O06-3" edge="1">
                    <mxGeometry relative="1" as="geometry"/>
                </mxCell>
                <mxCell id="sotVoUwGNZf-6Be--usY-3" style="edgeStyle=none;html=1;exitX=0;exitY=1;exitDx=0;exitDy=0;entryX=0.5;entryY=0;entryDx=0;entryDy=0;startArrow=classic;startFill=1;" parent="GJmi0HxVk_QNosMw-O06-0" source="GJmi0HxVk_QNosMw-O06-2" target="GJmi0HxVk_QNosMw-O06-4" edge="1">
                    <mxGeometry relative="1" as="geometry"/>
                </mxCell>
                <mxCell id="GJmi0HxVk_QNosMw-O06-2" value="Contrôleur" style="swimlane;startSize=23;" parent="GJmi0HxVk_QNosMw-O06-0" vertex="1">
                    <mxGeometry x="160" y="200" width="80" height="80" as="geometry"/>
                </mxCell>
                <mxCell id="sotVoUwGNZf-6Be--usY-1" style="edgeStyle=none;html=1;exitX=0.5;exitY=1;exitDx=0;exitDy=0;entryX=0.5;entryY=0;entryDx=0;entryDy=0;startArrow=classic;startFill=1;" parent="GJmi0HxVk_QNosMw-O06-0" source="GJmi0HxVk_QNosMw-O06-3" target="sotVoUwGNZf-6Be--usY-0" edge="1">
                    <mxGeometry relative="1" as="geometry"/>
                </mxCell>
                <mxCell id="GJmi0HxVk_QNosMw-O06-3" value="Modèle" style="swimlane;fontStyle=0" parent="GJmi0HxVk_QNosMw-O06-0" vertex="1">
                    <mxGeometry x="240" y="320" width="80" height="80" as="geometry"/>
                </mxCell>
                <mxCell id="GJmi0HxVk_QNosMw-O06-4" value="Vue" style="swimlane;startSize=23;" parent="GJmi0HxVk_QNosMw-O06-0" vertex="1">
                    <mxGeometry x="80" y="320" width="80" height="80" as="geometry"/>
                </mxCell>
                <mxCell id="sotVoUwGNZf-6Be--usY-0" value="DAO" style="swimlane;" parent="GJmi0HxVk_QNosMw-O06-0" vertex="1">
                    <mxGeometry x="240" y="440" width="80" height="80" as="geometry"/>
                </mxCell>
                <mxCell id="HoGwsk6-8Un59kb1olSU-0" value="Templates" style="swimlane;" parent="GJmi0HxVk_QNosMw-O06-0" vertex="1">
                    <mxGeometry x="80" y="440" width="80" height="80" as="geometry"/>
                </mxCell>
                <mxCell id="HoGwsk6-8Un59kb1olSU-6" style="edgeStyle=none;html=1;exitX=0.5;exitY=1;exitDx=0;exitDy=0;entryX=0.5;entryY=0;entryDx=0;entryDy=0;startArrow=classic;startFill=1;" parent="GJmi0HxVk_QNosMw-O06-0" edge="1">
                    <mxGeometry relative="1" as="geometry">
                        <mxPoint x="119.5" y="400" as="sourcePoint"/>
                        <mxPoint x="119.5" y="440" as="targetPoint"/>
                    </mxGeometry>
                </mxCell>
                <mxCell id="sotVoUwGNZf-6Be--usY-6" style="edgeStyle=none;html=1;exitX=1;exitY=0.5;exitDx=0;exitDy=0;startArrow=classic;startFill=1;" parent="WmtxSrRQELL2SFM4piuL-1" source="sotVoUwGNZf-6Be--usY-0" edge="1">
                    <mxGeometry relative="1" as="geometry">
                        <mxPoint x="600" y="560" as="targetPoint"/>
                    </mxGeometry>
                </mxCell>
                <mxCell id="HoGwsk6-8Un59kb1olSU-3" style="edgeStyle=none;html=1;exitX=0;exitY=0.5;exitDx=0;exitDy=0;entryX=1;entryY=0.5;entryDx=0;entryDy=0;startArrow=classic;startFill=1;" parent="WmtxSrRQELL2SFM4piuL-1" source="HoGwsk6-8Un59kb1olSU-0" edge="1">
                    <mxGeometry relative="1" as="geometry">
                        <mxPoint x="120" y="560" as="targetPoint"/>
                    </mxGeometry>
                </mxCell>
                <mxCell id="HoGwsk6-8Un59kb1olSU-4" value="" style="fontColor=#0066CC;verticalAlign=top;verticalLabelPosition=bottom;labelPosition=center;align=center;html=1;outlineConnect=0;fillColor=#CCCCCC;strokeColor=#6881B3;gradientColor=none;gradientDirection=north;strokeWidth=2;shape=mxgraph.networks.storage;" parent="WmtxSrRQELL2SFM4piuL-1" vertex="1">
                    <mxGeometry x="600" y="510" width="100" height="100" as="geometry"/>
                </mxCell>
                <mxCell id="HoGwsk6-8Un59kb1olSU-5" value="" style="aspect=fixed;html=1;points=[];align=center;image;fontSize=12;image=img/lib/azure2/general/Files.svg;" parent="WmtxSrRQELL2SFM4piuL-1" vertex="1">
                    <mxGeometry x="60" y="520" width="64" height="70" as="geometry"/>
                </mxCell>
            </root>
        </mxGraphModel>
    </diagram>
    <diagram id="AsUG13TwOl6j8WrpyDmu" name="Requêtes">
        <mxGraphModel dx="1151" dy="735" grid="1" gridSize="10" guides="1" tooltips="1" connect="1" arrows="1" fold="1" page="1" pageScale="1" pageWidth="827" pageHeight="1169" math="0" shadow="0">
            <root>
                <mxCell id="X2LqdsM31f_kjzfSbGzu-0"/>
                <mxCell id="X2LqdsM31f_kjzfSbGzu-1" parent="X2LqdsM31f_kjzfSbGzu-0"/>
                <mxCell id="X2LqdsM31f_kjzfSbGzu-2" value="" style="shape=cylinder3;whiteSpace=wrap;html=1;boundedLbl=1;backgroundOutline=1;size=15;" parent="X2LqdsM31f_kjzfSbGzu-1" vertex="1">
                    <mxGeometry x="680" y="240" width="60" height="80" as="geometry"/>
                </mxCell>
                <mxCell id="X2LqdsM31f_kjzfSbGzu-3" value="Serveur" style="shape=cube;whiteSpace=wrap;html=1;boundedLbl=1;backgroundOutline=1;darkOpacity=0.05;darkOpacity2=0.1;size=20;rotation=0;" parent="X2LqdsM31f_kjzfSbGzu-1" vertex="1">
                    <mxGeometry x="520" y="235" width="90" height="90" as="geometry"/>
                </mxCell>
                <mxCell id="X2LqdsM31f_kjzfSbGzu-4" value="Client" style="shape=cube;whiteSpace=wrap;html=1;boundedLbl=1;backgroundOutline=1;darkOpacity=0.05;darkOpacity2=0.1;size=20;rotation=0;" parent="X2LqdsM31f_kjzfSbGzu-1" vertex="1">
                    <mxGeometry x="200" y="235" width="90" height="90" as="geometry"/>
                </mxCell>
                <mxCell id="X2LqdsM31f_kjzfSbGzu-5" value="" style="endArrow=none;html=1;" parent="X2LqdsM31f_kjzfSbGzu-1" edge="1">
                    <mxGeometry width="50" height="50" relative="1" as="geometry">
                        <mxPoint x="250" y="560" as="sourcePoint"/>
                        <mxPoint x="250" y="360" as="targetPoint"/>
                    </mxGeometry>
                </mxCell>
                <mxCell id="X2LqdsM31f_kjzfSbGzu-6" value="Requête" style="endArrow=classic;html=1;" parent="X2LqdsM31f_kjzfSbGzu-1" edge="1">
                    <mxGeometry relative="1" as="geometry">
                        <mxPoint x="250" y="400" as="sourcePoint"/>
                        <mxPoint x="570" y="400" as="targetPoint"/>
                    </mxGeometry>
                </mxCell>
                <mxCell id="X2LqdsM31f_kjzfSbGzu-8" value="" style="endArrow=none;html=1;" parent="X2LqdsM31f_kjzfSbGzu-1" edge="1">
                    <mxGeometry width="50" height="50" relative="1" as="geometry">
                        <mxPoint x="570" y="560" as="sourcePoint"/>
                        <mxPoint x="570" y="360" as="targetPoint"/>
                    </mxGeometry>
                </mxCell>
                <mxCell id="X2LqdsM31f_kjzfSbGzu-9" value="" style="endArrow=none;html=1;" parent="X2LqdsM31f_kjzfSbGzu-1" edge="1">
                    <mxGeometry width="50" height="50" relative="1" as="geometry">
                        <mxPoint x="710" y="560" as="sourcePoint"/>
                        <mxPoint x="710" y="360" as="targetPoint"/>
                    </mxGeometry>
                </mxCell>
                <mxCell id="X2LqdsM31f_kjzfSbGzu-10" value="Requête" style="endArrow=classic;html=1;" parent="X2LqdsM31f_kjzfSbGzu-1" edge="1">
                    <mxGeometry relative="1" as="geometry">
                        <mxPoint x="570" y="440" as="sourcePoint"/>
                        <mxPoint x="250" y="440" as="targetPoint"/>
                    </mxGeometry>
                </mxCell>
            </root>
        </mxGraphModel>
    </diagram>
</mxfile>